<?xml version="1.0" encoding="utf-8"?>
<svg xmlns="http://www.w3.org/2000/svg" version="1.1" baseProfile="tiny" width="800" height="600" viewBox="0 0 800 600">
	<g>
		<g stroke="#000000" stroke-width=".98" fill="none">
			<path   d="m270.2 29.2l-68.15 31.76-3.06 48.39-25.27 27.23.76 14.37-11.49 14.37.77 35.54-35.22 0 .76 17.4 10.72 15.88 6.13 21.18-11.49 18.91-31.39 9.83 3.82 16.64 73.52 17.4 16.08 18.15-5.36 14.38 13.78 6.81 16.08-3.03 29.1 46.15 29.1 3.02 39.06 41.61 15.31-3.78.77 43.88 7.65 9.83-3.82 31.78 26.8 22.7 35.99-8.32 14.55 41.61 41.35 12.11 31.4-12.11 25.27-6.81-.77-30.26 9.96-20.43 2.29-8.32-8.42-23.46 17.61-8.32 22.98 8.32 27.56-10.59 16.85 1.51 10.72 18.16 19.14-47.66-6.89-24.21 13.02-17.4-52.84-47.66 11.49-12.86 68.92 16.64 18.38-24.96-8.43-20.43 13.79-15.88 6.89-34.04-3.06-29.5 3.82-18.91-3.82-25.71-19.91-50.68-29.1-40.83-.77-37.81-16.08-29.49-40.59-6.05-14.55 12.85-58.96 4.54-42.12-13.61-11.48 9.07-16.85 3.78-48.24-46.88-23.74 3.78-42.12 19.66-54.37 1.51" />
			<!-- <path   d="m273.65 30.14l-3.45-.75" transform="translate(0 0)" fill="#000"/> -->
			<!-- <path  d="m272.5 26.17l-9.19 24.2 9.19 25.71-6.13 51.42 10.72 9.08 3.07 42.35 4.59 12.1-13.78 49.92 13.78 16.64-13.78 21.18-29.1 13.61-33.69 3.03-18.38 30.25" /> -->
			<!-- <path  d="m189.84 325.66l-1.14 1.56" /> -->
			<path d="m422.59 151.33l28.33 17.39-3.44 8.32 4.21 7.18-33.89 9.46-134.77 4.16" />
			<path d="m272.55 130.58l-5.98-3.03" />
			<path d="m338.64 145.65l-3.44-6.52-15.41-8.13-3.45-12.38-9.86 2.17-31.3-21.36-5.07-2.74"/>
			<path d="m610.2 39.03l-32.16 100.57-79.64 28.74-31.4 4.54-16.84-4.54" />
			<path d="m387.94 143.76l1.34 15.32-.86.47-9.19-1.99-1.82 5.49-3.35 4.44.1 3.31-17.71 12.29-2.2-2.27-12.54.66 1.91-5.58-10.43-16.07-20.87 17.4-33.5-16.73" />
			<path d="m336.63 196.04l5.36-14.56" />
			<path d="m338.45 146.5l4.21 4.83-8.61 8.98" />
			<path d="m334.05 160.16l-.43.38" />
			<path d="m338.45 146.53l-.53-.48" />
			<path d="m403.45 195.57l3.82 11.34 9.58 9.08-4.6 23.45-9.19-1.52-19.52 20.42-13.79 8.7 5.75 28.75 3.44 32.9 7.28 18.91-8.04 11.73 10.33 20.04-11.1 23.45 0 16.27 15.7 32.91 11.87 10.97 3.83 19.29-29.87 15.51" />
			<path d="m379.13 497.77l-11.48 7.19-6.7 14.19-2.49 13.62-2.3 9.07" />
			<path d="m377.79 321.5l20.3 10.59 29.86 8.7-6.13 25.34 31.02 15.89 19.14 47.28 20.68 18.54 12.63-5.68 19.91 34.05 32.55 18.16" />
			<path d="m578.23 140.17l1.44 3.59-2.2 30.82-1.92 44.53-.76 15.6 8.71 25.81-.58 19.1-2.25 6-12.58-7.04-9.58 27.98-20.1 16.08-31.39 37.44-3.26 21.56-9.76 65.06" />
			<path d="m338.48 146.55l.45-.63-.29-.29" />
			<path d="m338.36 147.17l25.27-11.35 56.66 12.86-19.91-37.06 42.12-58.23" />
		</g>
	</g>
</svg>