<?xml version="1.0" standalone="no"?>
<!DOCTYPE svg PUBLIC "-//W3C//DTD SVG 20010904//EN"
 "http://www.w3.org/TR/2001/REC-SVG-20010904/DTD/svg10.dtd">
<svg version="1.0" xmlns="http://www.w3.org/2000/svg"
 width="256.633pt" height="66.000000pt" viewBox="0 0 256.000000 55.000000"
 preserveAspectRatio="xMidYMid meet">
<metadata>
Created by potrace 1.16, written by Peter Selinger 2001-2019
</metadata>
<g transform="translate(0.000000,55.000000) scale(0.020000,-0.004297)"
fill="#fff" stroke="none">
<path d="M6125 12039 c-488 -34 -1007 -139 -1477 -297 -238 -81 -448 -169
-698 -294 -297 -148 -486 -259 -757 -446 -71 -49 -355 -266 -383 -293 -8 -8
-62 -54 -119 -103 -136 -117 -381 -361 -507 -506 -708 -810 -1151 -1711 -1354
-2754 -38 -196 -79 -510 -87 -673 l-6 -123 124 0 c68 0 129 4 135 8 6 4 14 60
18 132 7 131 35 368 61 518 158 911 552 1782 1134 2507 331 411 740 794 1151
1075 80 55 150 103 155 108 57 44 333 201 514 292 338 170 608 276 996 390 17
5 94 25 173 45 683 172 1500 203 2222 85 312 -51 510 -100 860 -213 223 -73
526 -202 775 -331 404 -210 735 -436 1102 -752 130 -111 479 -470 599 -614
723 -869 1156 -1911 1260 -3028 l7 -73 131 3 131 3 -3 70 c-6 154 -48 434
-109 720 -246 1163 -882 2260 -1778 3064 -429 384 -822 651 -1330 901 -668
330 -1409 527 -2175 580 -169 11 -592 11 -765 -1z"/>
<path d="M6070 11444 c-1206 -102 -2323 -613 -3189 -1459 -598 -585 -1026
-1268 -1295 -2066 -129 -385 -226 -868 -252 -1256 l-7 -103 70 0 70 0 6 103
c8 116 49 445 71 557 182 925 592 1751 1211 2435 673 745 1552 1276 2508 1516
460 116 818 155 1330 146 455 -8 724 -41 1113 -137 766 -190 1446 -538 2054
-1049 160 -135 468 -442 596 -596 457 -547 780 -1141 977 -1800 98 -328 153
-605 192 -981 l7 -61 51 2 c92 3 87 0 82 48 -21 188 -29 247 -46 355 -33 208
-92 476 -134 612 -82 268 -110 347 -198 560 -53 129 -187 408 -247 515 -94
167 -84 152 -233 375 -67 102 -158 230 -201 285 -286 366 -637 713 -981 969
-66 50 -136 101 -155 116 -57 43 -328 213 -425 267 -794 444 -1651 666 -2555
662 -146 -1 -335 -7 -420 -15z"/>
<path d="M11503 6548 c-39 -49 -61 -161 -44 -225 15 -53 49 -84 103 -89 99
-11 110 -26 65 -87 -40 -55 -85 -169 -97 -247 -6 -41 -10 -156 -9 -254 2 -166
1 -180 -17 -193 -13 -10 -32 -12 -56 -9 -56 9 -70 -11 -92 -131 -10 -56 -16
-109 -13 -117 5 -14 30 -16 155 -16 102 0 152 4 160 12 24 24 11 255 -23 408
-22 103 -29 266 -15 349 11 66 76 235 103 269 8 10 47 13 171 10 151 -3 164
-5 211 -29 27 -15 58 -37 68 -51 30 -41 37 -136 37 -559 0 -352 2 -408 15
-413 25 -9 43 4 71 52 l27 46 -7 430 c-8 541 -10 567 -47 629 -16 26 -29 51
-29 55 0 17 -97 64 -149 73 -31 5 -144 9 -251 9 -107 -1 -206 -1 -219 0 -16 0
-39 16 -66 45 -32 36 -44 43 -52 33z"/>
<path d="M8147 6521 c-399 -6 -419 -7 -433 -25 -18 -25 -18 -60 0 -75 10 -8
61 -11 158 -10 l143 1 6 -128 c4 -71 7 -314 8 -540 1 -356 3 -413 16 -424 12
-10 71 -12 261 -8 135 3 247 8 251 11 3 4 4 152 2 329 -2 178 -4 422 -4 543
l0 220 143 5 c128 4 145 7 158 24 8 11 11 29 8 40 -12 41 -31 46 -168 44 -72
-1 -319 -4 -549 -7z"/>
<path d="M2655 6218 c-87 -161 -209 -385 -270 -498 -251 -462 -254 -468 -214
-493 36 -22 63 -1 104 83 l39 80 166 0 c91 0 208 3 262 7 l96 6 42 -83 41 -82
282 7 c155 4 285 9 290 12 18 10 3 51 -61 166 -37 67 -87 160 -111 207 -24 47
-47 90 -51 95 -4 6 -29 51 -55 100 -26 50 -76 142 -110 205 -34 63 -106 197
-160 298 -69 127 -103 182 -115 182 -13 0 -63 -84 -175 -292z m35 -531 c51
-98 90 -180 88 -182 -6 -6 -389 -7 -395 -1 -3 3 -1 11 4 18 5 7 40 72 78 143
93 179 116 218 126 208 4 -4 49 -88 99 -186z"/>
<path d="M6496 6491 c-7 -12 13 -1181 20 -1193 8 -12 404 -8 427 4 18 9 19 26
12 377 l-8 367 34 29 c40 33 105 64 136 65 12 0 26 -8 31 -17 5 -10 12 -194
15 -410 3 -216 8 -397 12 -403 9 -15 417 -14 432 1 17 17 6 679 -13 772 -22
111 -92 179 -213 207 -105 24 -261 -9 -372 -80 -25 -17 -49 -30 -52 -30 -4 0
-7 67 -7 148 0 102 -4 152 -12 160 -15 15 -434 17 -442 3z"/>
<path d="M3578 5878 c2 -431 6 -589 15 -607 l12 -24 210 7 c142 4 211 10 216
18 8 13 2 810 -7 1046 l-6 142 -222 0 -221 0 3 -582z"/>
<path d="M1201 6356 c-19 -22 -32 -110 -26 -167 9 -75 35 -116 90 -140 54 -24
57 -42 20 -135 -14 -35 -30 -87 -35 -116 -15 -75 -39 -88 -70 -35 -30 51 -92
137 -126 176 -42 48 -186 241 -212 283 -11 18 -23 52 -27 76 -9 54 -37 73 -59
39 -25 -38 -47 -162 -37 -205 6 -20 14 -53 19 -72 14 -54 29 -78 98 -151 75
-80 79 -100 29 -149 -51 -51 -112 -166 -121 -227 -8 -64 10 -164 48 -258 31
-78 37 -158 13 -189 -26 -34 -3 -46 73 -39 97 8 112 20 112 91 0 62 -22 140
-50 182 -18 26 -69 133 -90 188 -23 60 0 146 55 205 40 42 66 37 106 -24 22
-33 217 -289 314 -412 22 -27 61 -80 86 -116 54 -77 78 -84 96 -31 19 56 14
110 -16 186 -23 59 -104 184 -132 204 -4 3 -19 30 -33 60 -42 90 -33 211 26
340 38 83 54 100 93 100 18 0 39 7 46 16 18 22 16 112 -5 152 -20 38 -70 72
-106 72 -42 1 -108 36 -124 68 -18 34 -40 46 -55 28z"/>
<path d="M10938 6350 c-9 -6 -31 -45 -48 -87 -18 -43 -71 -154 -117 -248 -80
-158 -86 -168 -100 -150 -8 11 -53 85 -100 165 -47 80 -105 177 -128 215 l-42
70 -254 -4 c-140 -2 -257 -5 -261 -8 -19 -11 -2 -45 92 -187 55 -83 121 -186
147 -229 259 -419 367 -587 378 -587 7 0 17 6 22 13 9 10 199 380 427 832 42
82 76 155 76 162 0 19 -37 53 -57 53 -10 0 -25 -5 -35 -10z"/>
<path d="M9245 6320 c-109 -12 -228 -55 -285 -102 -49 -41 -64 -102 -32 -131
35 -32 69 -21 132 40 73 71 122 92 217 92 80 1 117 -9 132 -36 5 -10 11 -63
12 -118 3 -114 10 -108 -96 -81 -107 28 -241 14 -336 -35 -59 -30 -127 -96
-154 -149 -31 -61 -41 -153 -25 -222 56 -238 325 -340 563 -213 27 14 50 25
51 25 2 0 6 -13 10 -30 l6 -30 229 0 c216 0 231 1 240 19 8 14 6 30 -8 63 -17
38 -20 81 -26 348 -4 215 -10 320 -20 356 -27 93 -116 159 -256 187 -94 20
-264 28 -354 17z m143 -460 l42 -19 0 -159 0 -160 -35 -31 c-36 -32 -102 -55
-128 -45 -12 4 -16 36 -22 160 -14 291 0 315 143 254z"/>
<path d="M5852 6260 c-30 -11 -76 -35 -102 -54 l-49 -35 -3 37 -3 37 -200 3
c-110 1 -211 0 -223 -3 l-24 -6 7 -492 c4 -271 11 -496 15 -500 13 -14 423 -8
432 6 4 7 8 60 8 119 l0 107 56 -34 c81 -49 148 -69 229 -68 151 1 268 88 333
245 31 77 42 246 22 337 -27 124 -117 242 -220 290 -75 34 -201 39 -278 11z
m31 -222 c4 -62 7 -206 7 -320 l0 -208 -23 0 c-29 0 -91 33 -131 71 l-31 29
-3 211 -4 211 29 30 c35 38 111 88 133 88 14 0 18 -17 23 -112z"/>
<path d="M4520 6246 c-78 -22 -133 -57 -200 -125 -101 -102 -150 -224 -150
-371 0 -224 152 -432 355 -486 160 -43 355 13 491 142 98 92 114 191 33 197
-15 1 -31 -10 -48 -33 -107 -140 -208 -209 -319 -218 -91 -7 -92 -6 -92 189
l0 156 38 7 c20 3 139 6 265 6 l227 0 0 61 c0 189 -108 363 -279 447 -69 34
-81 37 -175 39 -61 1 -119 -3 -146 -11z m210 -102 c12 -12 15 -46 15 -177 l0
-162 -80 0 -80 0 -3 151 c-3 164 4 200 40 207 35 7 91 -3 108 -19z"/>
<path d="M11905 5038 c-2 -7 -22 -85 -44 -173 -137 -547 -402 -1139 -744
-1662 -58 -88 -246 -343 -304 -414 -218 -260 -495 -545 -705 -723 -289 -246
-643 -491 -928 -643 -52 -28 -124 -66 -160 -85 -93 -50 -345 -163 -485 -218
-490 -193 -956 -302 -1545 -362 -193 -20 -794 -16 -1000 5 -718 76 -1316 248
-1930 554 -179 89 -241 123 -395 216 -489 296 -952 685 -1315 1107 -36 41 -67
77 -70 80 -3 3 -39 48 -81 100 -133 167 -232 307 -375 530 -120 188 -303 542
-402 780 -99 238 -164 428 -247 723 l-17 59 -131 -4 -132 -3 3 -25 c4 -47 81
-315 135 -475 160 -472 393 -946 669 -1359 366 -546 830 -1034 1363 -1432 124
-93 410 -285 480 -323 22 -12 78 -44 125 -72 86 -50 397 -208 480 -244 25 -10
81 -34 125 -53 417 -178 939 -322 1420 -391 301 -44 466 -55 820 -55 354 0
540 12 825 54 932 138 1793 482 2536 1016 102 73 333 250 344 263 3 3 34 31
70 61 601 507 1171 1262 1489 1971 176 394 304 771 380 1122 l19 87 -134 0
c-99 0 -136 -3 -139 -12z"/>
<path d="M11385 5008 c-13 -64 -105 -358 -149 -475 -218 -585 -544 -1129 -953
-1593 -115 -130 -403 -411 -532 -519 -718 -599 -1585 -994 -2471 -1125 -369
-55 -828 -71 -1180 -42 -629 51 -1198 202 -1750 463 -109 52 -177 88 -400 211
-227 126 -606 406 -840 620 -293 268 -595 616 -776 892 -27 41 -51 77 -54 80
-8 7 -110 173 -161 260 -79 138 -227 443 -292 605 -62 153 -156 424 -171 493
l-8 32 -70 0 -70 0 6 -35 c22 -115 168 -515 272 -741 62 -138 79 -171 171
-344 141 -263 368 -593 592 -859 92 -110 380 -408 486 -502 79 -71 285 -240
345 -284 30 -22 60 -43 65 -48 82 -67 368 -250 551 -353 586 -328 1274 -543
1979 -620 198 -21 652 -29 860 -15 1025 71 1956 415 2774 1025 157 118 152
114 313 255 738 645 1284 1504 1563 2462 18 63 37 132 40 152 l7 37 -70 0 -70
0 -7 -32z"/>
</g>
</svg>
